<svg version="1.1" xmlns="http://www.w3.org/2000/svg" xmlns:xlink="http://www.w3.org/1999/xlink" width="741.13815" height="1069.65067" viewBox="0,0,741.13815,1069.65067"><g transform="translate(60.18796,303.49068)"><g data-paper-data="{&quot;isPaintingLayer&quot;:true}" fill-rule="nonzero" stroke="none" stroke-width="0" stroke-linecap="butt" stroke-linejoin="miter" stroke-miterlimit="10" stroke-dasharray="" stroke-dashoffset="0" style="mix-blend-mode: normal"><g><path d="M-60.18796,484.94986l73.25625,-788.44054l76.69112,30.12511l-73.25625,788.44054z" fill="#00e6ff"/><path d="M236.60051,614.10417l73.25625,-788.44054l76.69112,30.12511l-73.25625,788.44054z" fill="#00e6ff"/><path d="M88.20627,549.52701l73.25625,-788.44054l76.69112,30.12511l-73.25625,788.44054z" fill="#00e6ff"/><path d="M384.99474,678.68132l73.25625,-788.44054l76.69112,30.12511l-73.25625,788.44054z" fill="#00e6ff"/><path d="M531.00282,736.03488l73.25625,-788.44054l76.69112,30.12511l-73.25625,788.44054z" fill="#00e6ff"/><path d="M13.27174,516.94877l73.25625,-788.44054l76.69112,30.12511l-73.25625,788.44054z" fill="#006aff"/><path d="M310.06021,646.10308l73.25625,-788.44054l76.69112,30.12511l-73.25625,788.44054z" fill="#006aff"/><path d="M161.66598,581.52592l73.25625,-788.44054l76.69111,30.1251l-73.25625,788.44054z" fill="#006aff"/><path d="M458.45445,710.68023l73.25625,-788.44054l76.69111,30.1251l-73.25625,788.44054z" fill="#006aff"/></g></g></g></svg>